<?xml version="1.0" encoding="UTF-8" standalone="no"?>
<!-- Created with Inkscape (http://www.inkscape.org/) -->

<svg
   width="1244mm"
   height="200mm"
   viewBox="0 0 1244 200"
   version="1.1"
   id="svg5"
   inkscape:version="1.2.1 (9c6d41e410, 2022-07-14)"
   sodipodi:docname="logo.svg"
   xmlns:inkscape="http://www.inkscape.org/namespaces/inkscape"
   xmlns:sodipodi="http://sodipodi.sourceforge.net/DTD/sodipodi-0.dtd"
   xmlns="http://www.w3.org/2000/svg"
   xmlns:svg="http://www.w3.org/2000/svg">
  <sodipodi:namedview
     id="namedview7"
     pagecolor="#505050"
     bordercolor="#eeeeee"
     borderopacity="1"
     inkscape:showpageshadow="0"
     inkscape:pageopacity="0"
     inkscape:pagecheckerboard="0"
     inkscape:deskcolor="#505050"
     inkscape:document-units="mm"
     showgrid="false"
     inkscape:zoom="0.2625845"
     inkscape:cx="2105.9887"
     inkscape:cy="1332.9043"
     inkscape:window-width="1436"
     inkscape:window-height="487"
     inkscape:window-x="1272"
     inkscape:window-y="837"
     inkscape:window-maximized="0"
     inkscape:current-layer="layer1"
     showguides="true">
    <sodipodi:guide
       position="96.067306,84.782707"
       orientation="1,0"
       id="guide4633"
       inkscape:locked="false" />
    <sodipodi:guide
       position="1151.1969,303.28027"
       orientation="1,0"
       id="guide4681"
       inkscape:locked="false" />
  </sodipodi:namedview>
  <defs
     id="defs2">
    <rect
       x="112.44055"
       y="179.45398"
       width="1068.9673"
       height="96.199142"
       id="rect363" />
  </defs>
  <g
     inkscape:label="Layer 1"
     inkscape:groupmode="layer"
     id="layer1">
    <rect
       style="fill:#276ce7;fill-opacity:1;stroke:#000000;stroke-width:0.264583;stroke-linecap:round;stroke-linejoin:round;paint-order:markers fill stroke"
       id="rect3634"
       width="1406.5487"
       height="821.37048"
       x="-79.342484"
       y="-56.542175" />
    <g
       aria-label="FINE VINTAGE GAMES"
       transform="matrix(0.99324051,0,0,0.99324051,-19.748605,-126.65472)"
       id="text361"
       style="font-size:40px;line-height:1.25;white-space:pre;shape-inside:url(#rect363);display:inline;fill:#ffce00">
      <path
         d="m 117.39074,258.91721 v -61.43998 h 56.06397 v 6.912 h -49.15198 v 20.30932 h 39.50932 v 6.99733 h -39.50932 v 27.22133 z"
         style="font-size:85.3333px;font-family:Orbitron;-inkscape-font-specification:'Orbitron, Normal'"
         id="path396" />
      <path
         d="m 179.76934,258.91721 v -61.43998 h 6.99733 v 61.43998 z"
         style="font-size:85.3333px;font-family:Orbitron;-inkscape-font-specification:'Orbitron, Normal'"
         id="path398" />
      <path
         d="m 197.17739,258.91721 v -61.43998 h 9.472 l 45.05598,53.58931 v -53.58931 h 6.912 v 61.43998 h -9.472 L 204.08939,205.3279 v 53.58931 z"
         style="font-size:85.3333px;font-family:Orbitron;-inkscape-font-specification:'Orbitron, Normal'"
         id="path400" />
      <path
         d="m 268.34543,258.91721 v -61.43998 h 56.06398 v 6.912 h -49.15198 v 20.30932 h 39.50932 v 6.99733 h -39.50932 v 20.30933 h 49.15198 v 6.912 z"
         style="font-size:85.3333px;font-family:Orbitron;-inkscape-font-specification:'Orbitron, Normal'"
         id="path402" />
      <path
         d="m 390.54273,258.91721 v 0 l -35.58399,-61.43998 h 8.10667 l 31.48798,54.69865 31.40266,-54.69865 h 8.10666 l -35.49865,61.43998 z"
         style="font-size:85.3333px;font-family:Orbitron;-inkscape-font-specification:'Orbitron, Normal'"
         id="path404" />
      <path
         d="m 443.1934,258.91721 v -61.43998 h 6.99733 v 61.43998 z"
         style="font-size:85.3333px;font-family:Orbitron;-inkscape-font-specification:'Orbitron, Normal'"
         id="path406" />
      <path
         d="m 460.60145,258.91721 v -61.43998 h 9.472 l 45.05598,53.58931 v -53.58931 h 6.91199 v 61.43998 h -9.47199 L 467.51345,205.3279 v 53.58931 z"
         style="font-size:85.3333px;font-family:Orbitron;-inkscape-font-specification:'Orbitron, Normal'"
         id="path408" />
      <path
         d="m 555.83345,258.91721 v 0 -54.52798 H 528.5268 v -6.912 h 61.43997 v 6.912 h -27.22132 v 54.52798 z"
         style="font-size:85.3333px;font-family:Orbitron;-inkscape-font-specification:'Orbitron, Normal'"
         id="path410" />
      <path
         d="m 596.5375,258.91721 v -51.19998 q 0,-2.816 1.36533,-5.12 1.36533,-2.38933 3.66933,-3.75466 2.38933,-1.36534 5.20533,-1.36534 h 40.95999 q 2.81599,0 5.11999,1.36534 2.38934,1.36533 3.75467,3.75466 1.36533,2.304 1.36533,5.12 v 51.19998 h -6.912 v -22.44266 h -47.61598 v 22.44266 z m 6.91199,-29.35466 h 47.61598 v -21.84532 q 0,-1.36533 -1.024,-2.304 -0.93866,-1.024 -2.30399,-1.024 h -40.95999 q -1.36533,0 -2.38933,1.024 -0.93867,0.93867 -0.93867,2.304 z"
         style="font-size:85.3333px;font-family:Orbitron;-inkscape-font-specification:'Orbitron, Normal'"
         id="path412" />
      <path
         d="m 677.94554,258.91721 q -2.816,0 -5.20533,-1.36534 -2.304,-1.36533 -3.66933,-3.66933 -1.36534,-2.38933 -1.36534,-5.20533 v -40.95998 q 0,-2.816 1.36534,-5.12 1.36533,-2.38933 3.66933,-3.75466 2.38933,-1.36534 5.20533,-1.36534 h 40.95998 q 2.816,0 5.12,1.36534 2.38933,1.36533 3.75467,3.75466 1.36533,2.304 1.36533,5.12 v 2.47466 h -6.912 v -2.47466 q 0,-1.36533 -1.024,-2.304 -0.93866,-1.024 -2.304,-1.024 h -40.95998 q -1.36533,0 -2.38933,1.024 -0.93867,0.93867 -0.93867,2.304 v 40.95998 q 0,1.36533 0.93867,2.38933 1.024,0.93867 2.38933,0.93867 h 40.95998 q 1.36534,0 2.304,-0.93867 1.024,-1.024 1.024,-2.38933 v -15.18933 h -15.18933 v -6.99733 h 22.10133 v 22.18666 q 0,2.816 -1.36533,5.20533 -1.36534,2.304 -3.75467,3.66933 -2.304,1.36534 -5.12,1.36534 z"
         style="font-size:85.3333px;font-family:Orbitron;-inkscape-font-specification:'Orbitron, Normal'"
         id="path414" />
      <path
         d="m 738.70281,258.91721 v -61.43998 h 56.06398 v 6.912 h -49.15198 v 20.30932 h 39.50931 v 6.99733 h -39.50931 v 20.30933 h 49.15198 v 6.912 z"
         style="font-size:85.3333px;font-family:Orbitron;-inkscape-font-specification:'Orbitron, Normal'"
         id="path416" />
      <path
         d="m 837.34813,258.91721 q -2.816,0 -5.20533,-1.36534 -2.304,-1.36533 -3.66933,-3.66933 -1.36534,-2.38933 -1.36534,-5.20533 v -40.95998 q 0,-2.816 1.36534,-5.12 1.36533,-2.38933 3.66933,-3.75466 2.38933,-1.36534 5.20533,-1.36534 h 40.95998 q 2.816,0 5.12,1.36534 2.38933,1.36533 3.75466,3.75466 1.36534,2.304 1.36534,5.12 v 2.47466 h -6.912 v -2.47466 q 0,-1.36533 -1.024,-2.304 -0.93867,-1.024 -2.304,-1.024 h -40.95998 q -1.36533,0 -2.38933,1.024 -0.93867,0.93867 -0.93867,2.304 v 40.95998 q 0,1.36533 0.93867,2.38933 1.024,0.93867 2.38933,0.93867 h 40.95998 q 1.36533,0 2.304,-0.93867 1.024,-1.024 1.024,-2.38933 v -15.18933 h -15.18933 v -6.99733 h 22.10133 v 22.18666 q 0,2.816 -1.36534,5.20533 -1.36533,2.304 -3.75466,3.66933 -2.304,1.36534 -5.12,1.36534 z"
         style="font-size:85.3333px;font-family:Orbitron;-inkscape-font-specification:'Orbitron, Normal'"
         id="path418" />
      <path
         d="m 898.1054,258.91721 v -51.19998 q 0,-2.816 1.36533,-5.12 1.36533,-2.38933 3.66933,-3.75466 2.38934,-1.36534 5.20533,-1.36534 h 40.95999 q 2.816,0 5.11999,1.36534 2.38934,1.36533 3.75467,3.75466 1.36533,2.304 1.36533,5.12 v 51.19998 h -6.91199 V 236.47455 H 905.0174 v 22.44266 z m 6.912,-29.35466 h 47.61598 v -21.84532 q 0,-1.36533 -1.024,-2.304 -0.93867,-1.024 -2.304,-1.024 h -40.95999 q -1.36533,0 -2.38933,1.024 -0.93866,0.93867 -0.93866,2.304 z"
         style="font-size:85.3333px;font-family:Orbitron;-inkscape-font-specification:'Orbitron, Normal'"
         id="path420" />
      <path
         d="m 969.27342,258.91721 v -61.43998 h 9.47199 l 25.51469,30.37866 25.5146,-30.37866 h 9.472 v 61.43998 h -6.912 V 205.3279 l -28.0746,33.36532 -28.07469,-33.36532 v 53.58931 z"
         style="font-size:85.3333px;font-family:Orbitron;-inkscape-font-specification:'Orbitron, Normal'"
         id="path422" />
      <path
         d="m 1048.6334,258.91721 v -61.43998 h 56.0639 v 6.912 h -49.152 v 20.30932 h 39.5094 v 6.99733 h -39.5094 v 20.30933 h 49.152 v 6.912 z"
         style="font-size:85.3333px;font-family:Orbitron;-inkscape-font-specification:'Orbitron, Normal'"
         id="path424" />
      <path
         d="m 1123.6414,258.91721 q -2.816,0 -5.2054,-1.36534 -2.304,-1.36533 -3.6693,-3.66933 -1.3653,-2.38933 -1.3653,-5.20533 v -2.38933 h 6.912 v 2.38933 q 0,1.36533 0.9386,2.38933 1.024,0.93867 2.3894,0.93867 h 40.96 q 1.3653,0 2.304,-0.93867 1.024,-1.024 1.024,-2.38933 v -13.73866 q 0,-1.36533 -1.024,-2.304 -0.9387,-0.93867 -2.304,-0.93867 h -40.96 q -2.816,0 -5.2054,-1.36533 -2.304,-1.45066 -3.6693,-3.75466 -1.3653,-2.304 -1.3653,-5.12 v -13.73866 q 0,-2.816 1.3653,-5.12 1.3653,-2.38933 3.6693,-3.75466 2.3894,-1.36534 5.2054,-1.36534 h 40.96 q 2.816,0 5.12,1.36534 2.3893,1.36533 3.7546,3.75466 1.3653,2.304 1.3653,5.12 v 2.38933 h -6.9119 v -2.38933 q 0,-1.36533 -1.024,-2.304 -0.9387,-1.024 -2.304,-1.024 h -40.96 q -1.3654,0 -2.3894,1.024 -0.9386,0.93867 -0.9386,2.304 v 13.73866 q 0,1.36533 0.9386,2.304 1.024,0.93866 2.3894,0.93866 h 40.96 q 2.816,0 5.12,1.45067 2.3893,1.36533 3.7546,3.66933 1.3653,2.304 1.3653,5.12 v 13.73866 q 0,2.816 -1.3653,5.20533 -1.3653,2.304 -3.7546,3.66933 -2.304,1.36534 -5.12,1.36534 z"
         style="font-size:85.3333px;font-family:Orbitron;-inkscape-font-specification:'Orbitron, Normal'"
         id="path426" />
    </g>
    <g
       aria-label="FINE VINTAGE GAMES"
       transform="matrix(0.99324051,0,0,0.99324051,-19.748605,-126.65472)"
       id="g734"
       style="font-size:40px;line-height:1.25;white-space:pre;shape-inside:url(#rect363);display:inline;fill:#ffce00">
      <path
         d="m 117.39074,258.91721 v -61.43998 h 56.06397 v 6.912 h -49.15198 v 20.30932 h 39.50932 v 6.99733 h -39.50932 v 27.22133 z"
         style="font-size:85.3333px;font-family:Orbitron;-inkscape-font-specification:'Orbitron, Normal'"
         id="path702" />
      <path
         d="m 179.76934,258.91721 v -61.43998 h 6.99733 v 61.43998 z"
         style="font-size:85.3333px;font-family:Orbitron;-inkscape-font-specification:'Orbitron, Normal'"
         id="path704" />
      <path
         d="m 197.17739,258.91721 v -61.43998 h 9.472 l 45.05598,53.58931 v -53.58931 h 6.912 v 61.43998 h -9.472 L 204.08939,205.3279 v 53.58931 z"
         style="font-size:85.3333px;font-family:Orbitron;-inkscape-font-specification:'Orbitron, Normal'"
         id="path706" />
      <path
         d="m 268.34543,258.91721 v -61.43998 h 56.06398 v 6.912 h -49.15198 v 20.30932 h 39.50932 v 6.99733 h -39.50932 v 20.30933 h 49.15198 v 6.912 z"
         style="font-size:85.3333px;font-family:Orbitron;-inkscape-font-specification:'Orbitron, Normal'"
         id="path708" />
      <path
         d="m 390.54273,258.91721 v 0 l -35.58399,-61.43998 h 8.10667 l 31.48798,54.69865 31.40266,-54.69865 h 8.10666 l -35.49865,61.43998 z"
         style="font-size:85.3333px;font-family:Orbitron;-inkscape-font-specification:'Orbitron, Normal'"
         id="path710" />
      <path
         d="m 443.1934,258.91721 v -61.43998 h 6.99733 v 61.43998 z"
         style="font-size:85.3333px;font-family:Orbitron;-inkscape-font-specification:'Orbitron, Normal'"
         id="path712" />
      <path
         d="m 460.60145,258.91721 v -61.43998 h 9.472 l 45.05598,53.58931 v -53.58931 h 6.91199 v 61.43998 h -9.47199 L 467.51345,205.3279 v 53.58931 z"
         style="font-size:85.3333px;font-family:Orbitron;-inkscape-font-specification:'Orbitron, Normal'"
         id="path714" />
      <path
         d="m 555.83345,258.91721 v 0 -54.52798 H 528.5268 v -6.912 h 61.43997 v 6.912 h -27.22132 v 54.52798 z"
         style="font-size:85.3333px;font-family:Orbitron;-inkscape-font-specification:'Orbitron, Normal'"
         id="path716" />
      <path
         d="m 596.5375,258.91721 v -51.19998 q 0,-2.816 1.36533,-5.12 1.36533,-2.38933 3.66933,-3.75466 2.38933,-1.36534 5.20533,-1.36534 h 40.95999 q 2.81599,0 5.11999,1.36534 2.38934,1.36533 3.75467,3.75466 1.36533,2.304 1.36533,5.12 v 51.19998 h -6.912 v -22.44266 h -47.61598 v 22.44266 z m 6.91199,-29.35466 h 47.61598 v -21.84532 q 0,-1.36533 -1.024,-2.304 -0.93866,-1.024 -2.30399,-1.024 h -40.95999 q -1.36533,0 -2.38933,1.024 -0.93867,0.93867 -0.93867,2.304 z"
         style="font-size:85.3333px;font-family:Orbitron;-inkscape-font-specification:'Orbitron, Normal'"
         id="path718" />
      <path
         d="m 677.94554,258.91721 q -2.816,0 -5.20533,-1.36534 -2.304,-1.36533 -3.66933,-3.66933 -1.36534,-2.38933 -1.36534,-5.20533 v -40.95998 q 0,-2.816 1.36534,-5.12 1.36533,-2.38933 3.66933,-3.75466 2.38933,-1.36534 5.20533,-1.36534 h 40.95998 q 2.816,0 5.12,1.36534 2.38933,1.36533 3.75467,3.75466 1.36533,2.304 1.36533,5.12 v 2.47466 h -6.912 v -2.47466 q 0,-1.36533 -1.024,-2.304 -0.93866,-1.024 -2.304,-1.024 h -40.95998 q -1.36533,0 -2.38933,1.024 -0.93867,0.93867 -0.93867,2.304 v 40.95998 q 0,1.36533 0.93867,2.38933 1.024,0.93867 2.38933,0.93867 h 40.95998 q 1.36534,0 2.304,-0.93867 1.024,-1.024 1.024,-2.38933 v -15.18933 h -15.18933 v -6.99733 h 22.10133 v 22.18666 q 0,2.816 -1.36533,5.20533 -1.36534,2.304 -3.75467,3.66933 -2.304,1.36534 -5.12,1.36534 z"
         style="font-size:85.3333px;font-family:Orbitron;-inkscape-font-specification:'Orbitron, Normal'"
         id="path720" />
      <path
         d="m 738.70281,258.91721 v -61.43998 h 56.06398 v 6.912 h -49.15198 v 20.30932 h 39.50931 v 6.99733 h -39.50931 v 20.30933 h 49.15198 v 6.912 z"
         style="font-size:85.3333px;font-family:Orbitron;-inkscape-font-specification:'Orbitron, Normal'"
         id="path722" />
      <path
         d="m 837.34813,258.91721 q -2.816,0 -5.20533,-1.36534 -2.304,-1.36533 -3.66933,-3.66933 -1.36534,-2.38933 -1.36534,-5.20533 v -40.95998 q 0,-2.816 1.36534,-5.12 1.36533,-2.38933 3.66933,-3.75466 2.38933,-1.36534 5.20533,-1.36534 h 40.95998 q 2.816,0 5.12,1.36534 2.38933,1.36533 3.75466,3.75466 1.36534,2.304 1.36534,5.12 v 2.47466 h -6.912 v -2.47466 q 0,-1.36533 -1.024,-2.304 -0.93867,-1.024 -2.304,-1.024 h -40.95998 q -1.36533,0 -2.38933,1.024 -0.93867,0.93867 -0.93867,2.304 v 40.95998 q 0,1.36533 0.93867,2.38933 1.024,0.93867 2.38933,0.93867 h 40.95998 q 1.36533,0 2.304,-0.93867 1.024,-1.024 1.024,-2.38933 v -15.18933 h -15.18933 v -6.99733 h 22.10133 v 22.18666 q 0,2.816 -1.36534,5.20533 -1.36533,2.304 -3.75466,3.66933 -2.304,1.36534 -5.12,1.36534 z"
         style="font-size:85.3333px;font-family:Orbitron;-inkscape-font-specification:'Orbitron, Normal'"
         id="path724" />
      <path
         d="m 898.1054,258.91721 v -51.19998 q 0,-2.816 1.36533,-5.12 1.36533,-2.38933 3.66933,-3.75466 2.38934,-1.36534 5.20533,-1.36534 h 40.95999 q 2.816,0 5.11999,1.36534 2.38934,1.36533 3.75467,3.75466 1.36533,2.304 1.36533,5.12 v 51.19998 h -6.91199 V 236.47455 H 905.0174 v 22.44266 z m 6.912,-29.35466 h 47.61598 v -21.84532 q 0,-1.36533 -1.024,-2.304 -0.93867,-1.024 -2.304,-1.024 h -40.95999 q -1.36533,0 -2.38933,1.024 -0.93866,0.93867 -0.93866,2.304 z"
         style="font-size:85.3333px;font-family:Orbitron;-inkscape-font-specification:'Orbitron, Normal'"
         id="path726" />
      <path
         d="m 969.27342,258.91721 v -61.43998 h 9.47199 l 25.51469,30.37866 25.5146,-30.37866 h 9.472 v 61.43998 h -6.912 V 205.3279 l -28.0746,33.36532 -28.07469,-33.36532 v 53.58931 z"
         style="font-size:85.3333px;font-family:Orbitron;-inkscape-font-specification:'Orbitron, Normal'"
         id="path728" />
      <path
         d="m 1048.6334,258.91721 v -61.43998 h 56.0639 v 6.912 h -49.152 v 20.30932 h 39.5094 v 6.99733 h -39.5094 v 20.30933 h 49.152 v 6.912 z"
         style="font-size:85.3333px;font-family:Orbitron;-inkscape-font-specification:'Orbitron, Normal'"
         id="path730" />
      <path
         d="m 1123.6414,258.91721 q -2.816,0 -5.2054,-1.36534 -2.304,-1.36533 -3.6693,-3.66933 -1.3653,-2.38933 -1.3653,-5.20533 v -2.38933 h 6.912 v 2.38933 q 0,1.36533 0.9386,2.38933 1.024,0.93867 2.3894,0.93867 h 40.96 q 1.3653,0 2.304,-0.93867 1.024,-1.024 1.024,-2.38933 v -13.73866 q 0,-1.36533 -1.024,-2.304 -0.9387,-0.93867 -2.304,-0.93867 h -40.96 q -2.816,0 -5.2054,-1.36533 -2.304,-1.45066 -3.6693,-3.75466 -1.3653,-2.304 -1.3653,-5.12 v -13.73866 q 0,-2.816 1.3653,-5.12 1.3653,-2.38933 3.6693,-3.75466 2.3894,-1.36534 5.2054,-1.36534 h 40.96 q 2.816,0 5.12,1.36534 2.3893,1.36533 3.7546,3.75466 1.3653,2.304 1.3653,5.12 v 2.38933 h -6.9119 v -2.38933 q 0,-1.36533 -1.024,-2.304 -0.9387,-1.024 -2.304,-1.024 h -40.96 q -1.3654,0 -2.3894,1.024 -0.9386,0.93867 -0.9386,2.304 v 13.73866 q 0,1.36533 0.9386,2.304 1.024,0.93866 2.3894,0.93866 h 40.96 q 2.816,0 5.12,1.45067 2.3893,1.36533 3.7546,3.66933 1.3653,2.304 1.3653,5.12 v 13.73866 q 0,2.816 -1.3653,5.20533 -1.3653,2.304 -3.7546,3.66933 -2.304,1.36534 -5.12,1.36534 z"
         style="font-size:85.3333px;font-family:Orbitron;-inkscape-font-specification:'Orbitron, Normal'"
         id="path732" />
    </g>
  </g>
</svg>
